<svg xmlns="http://www.w3.org/2000/svg" viewBox="0 0 340 64" width="340" height="64">
  <!-- Icon (same as asset 2 but left-aligned) -->
  <circle cx="32" cy="32" r="32" fill="#0F1117"/>
  <rect x="9" y="14" width="8" height="3" rx="1" fill="#00BCD4"/>
  <rect x="47" y="14" width="8" height="3" rx="1" fill="#00BCD4"/>
  <rect x="28" y="14" width="8" height="3" rx="1" fill="#00BCD4"/>
  <rect x="10" y="17" width="6" height="22" rx="1" fill="#00BCD4"/>
  <rect x="48" y="17" width="6" height="22" rx="1" fill="#00BCD4"/>
  <polygon points="16,17 22,17 32,39 26,39" fill="#00BCD4"/>
  <polygon points="48,17 42,17 32,39 38,39" fill="#00BCD4"/>
  <circle cx="32" cy="12" r="3" fill="#00BCD4"/>
  <circle cx="32" cy="12" r="5" fill="#00BCD4" opacity="0.2"/>
  <rect x="8" y="40" width="48" height="2" rx="1" fill="#00BCD4" opacity="0.6"/>
  <!-- Wordmark -->
  <text x="80" y="28"
    font-family="-apple-system, BlinkMacSystemFont, 'Segoe UI', sans-serif"
    font-size="22" font-weight="800" letter-spacing="3"
    fill="#FFFFFF">WATCHPOST</text>
  <text x="80" y="46"
    font-family="-apple-system, BlinkMacSystemFont, 'Segoe UI', sans-serif"
    font-size="10" font-weight="400" letter-spacing="2"
    fill="#00BCD4">DEVICE FLEET MANAGEMENT</text>
</svg>
